#N canvas 820 463 840 486 12;
#X msg 26 403 resize \$1;
#X obj 455 122 metro 10;
#X obj 470 325 inlet~;
#X obj 455 364 *~ 1;
#X msg 21 316 1;
#X msg 21 291 100;
#X obj 21 265 loadbang;
#X obj 378 73 loadbang;
#X obj 103 324 hsl 295 20 10 500 0 0 empty empty Time 10 10 0 12 #fcfcfc #000000 #000000 0 1;
#X obj 103 364 hsl 295 20 20 300 0 0 empty empty Samplerate 10 10 0 12 #fcfcfc #000000 #000000 0 1;
#X obj 103 344 hsl 295 20 0.001 20 0 0 empty empty Scale 10 10 0 12 #fcfcfc #000000 #000000 0 1;
#X obj 593 81 f \$0;
#X obj 455 389 tabwrite~ \$0l;
#X obj 26 428 s \$0l;
#X obj 100 124 cnv 20 300 199 empty empty empty 20 12 0 12 #000000 #404040 0;
#N canvas 1495 547 952 561 (subpatch) 0;
#X array \$0l 146 float 0;
#X coords 0 1 145 -1 300 200 2 0 0;
#X restore 100 124 graph;
#X msg 593 107 \; \$1l width 2 \, color 90 \, edit 0 \;;
#X obj 378 102 tgl 20 0 empty empty On -20 10 0 12 #fcfcfc #000000 #000000 0 1;
#X msg 21 341 260;
#X obj 478 74 expr 310 - $f1;
#X obj 593 55 loadbang;
#X connect 0 0 13 0;
#X connect 1 0 12 0;
#X connect 2 0 3 0;
#X connect 3 0 12 0;
#X connect 4 0 10 0;
#X connect 5 0 8 0;
#X connect 6 0 5 0;
#X connect 6 0 4 0;
#X connect 6 0 18 0;
#X connect 7 0 17 0;
#X connect 8 0 0 0;
#X connect 9 0 19 0;
#X connect 10 0 3 1;
#X connect 11 0 16 0;
#X connect 17 0 1 0;
#X connect 18 0 9 0;
#X connect 19 0 1 1;
#X connect 20 0 11 0;
#X coords 0 -1 1 1 300 284 2 100 100;
